HIERARCHY
ROOT Hips
{
	OFFSET 0.000000 0.000000 0.000000
	CHANNELS 6 Xposition Yposition Zposition Xrotation Yrotation Zrotation
	JOINT LeftUpLeg_virtual
	{
		OFFSET 0.000000 0.000000 0.000000
		CHANNELS 3 Xrotation Yrotation Zrotation
		JOINT LeftUpLeg
		{
			OFFSET 13.026900 -6.336304 -1.092800
			CHANNELS 3 Xrotation Yrotation Zrotation
			JOINT LeftLeg
			{
				OFFSET 0.524474 -46.096886 9.782700
				CHANNELS 3 Xrotation Yrotation Zrotation
				JOINT LeftFoot
				{
					OFFSET -0.524474 -53.427422 -12.948200
					CHANNELS 3 Xrotation Yrotation Zrotation
					JOINT LeftToeBase
					{
						OFFSET 0.192200 -14.009700 16.364100
						CHANNELS 3 Xrotation Yrotation Zrotation
						JOINT LeftToe_End
						{
							OFFSET -1.784700 -0.561700 9.474800
							CHANNELS 3 Xrotation Yrotation Zrotation
							End Site
							{
								OFFSET 0 0 0
							}
						}
					}
				}
			}
		}
	}
	JOINT RightUpLeg_virtual
	{
		OFFSET 0.000000 0.000000 0.000000
		CHANNELS 3 Xrotation Yrotation Zrotation
		JOINT RightUpLeg
		{
			OFFSET -12.883000 -6.336304 -1.092800
			CHANNELS 3 Xrotation Yrotation Zrotation
			JOINT RightLeg
			{
				OFFSET -0.524587 -46.096825 9.782800
				CHANNELS 3 Xrotation Yrotation Zrotation
				JOINT RightFoot
				{
					OFFSET 0.524587 -53.427383 -12.948300
					CHANNELS 3 Xrotation Yrotation Zrotation
					JOINT RightToeBase
					{
						OFFSET -0.192200 -14.009700 16.364100
						CHANNELS 3 Xrotation Yrotation Zrotation
						JOINT RightToe_End
						{
							OFFSET 1.784700 -0.561700 9.474800
							CHANNELS 3 Xrotation Yrotation Zrotation
							End Site
							{
								OFFSET 0 0 0
							}
						}
					}
				}
			}
		}
	}
	JOINT Spine_virtual
	{
		OFFSET 0.000000 0.000000 0.000000
		CHANNELS 3 Xrotation Yrotation Zrotation
		JOINT Spine
		{
			OFFSET 0.072000 7.257294 -0.789700
			CHANNELS 3 Xrotation Yrotation Zrotation
			JOINT Spine1
			{
				OFFSET 0.000000 12.508769 -0.658067
				CHANNELS 3 Xrotation Yrotation Zrotation
				JOINT Spine1_split
				{
					OFFSET 0.000000 12.508769 -0.658067
					CHANNELS 3 Xrotation Yrotation Zrotation
					JOINT Spine2
					{
						OFFSET 0.000000 12.508769 -0.658067
						CHANNELS 3 Xrotation Yrotation Zrotation
						JOINT Neck_virtual
						{
							OFFSET 0.000000 0.000000 0.000000
							CHANNELS 3 Xrotation Yrotation Zrotation
							JOINT Neck
							{
								OFFSET 0.000000 14.033295 7.520400
								CHANNELS 3 Xrotation Yrotation Zrotation
								JOINT Head
								{
									OFFSET 0.000000 8.198502 5.703100
									CHANNELS 3 Xrotation Yrotation Zrotation
									JOINT HeadTop_End
									{
										OFFSET 0.000000 17.760803 13.332701
										CHANNELS 3 Xrotation Yrotation Zrotation
										End Site
										{
											OFFSET 0 0 0
										}
									}
								}
							}
						}
						JOINT LeftShoulder_virtual
						{
							OFFSET 0.000000 0.000000 0.000000
							CHANNELS 3 Xrotation Yrotation Zrotation
							JOINT LeftShoulder
							{
								OFFSET 6.292450 5.785301 -0.669000
								CHANNELS 3 Xrotation Yrotation Zrotation
								JOINT LeftShoulder_split
								{
									OFFSET 6.292450 5.785301 -0.669000
									CHANNELS 3 Xrotation Yrotation Zrotation
									JOINT LeftArm
									{
										OFFSET 13.907140 -6.093903 1.965100
										CHANNELS 3 Xrotation Yrotation Zrotation
										JOINT LeftForeArm
										{
											OFFSET 34.140198 0.000000 0.000000
											CHANNELS 3 Xrotation Yrotation Zrotation
											JOINT LeftHand
											{
												OFFSET 40.960209 0.000000 0.000000
												CHANNELS 3 Xrotation Yrotation Zrotation
												End Site
												{
													OFFSET 0 0 0
												}
											}
										}
									}
								}
							}
						}
						JOINT RightShoulder_virtual
						{
							OFFSET 0.000000 0.000000 0.000000
							CHANNELS 3 Xrotation Yrotation Zrotation
							JOINT RightShoulder
							{
								OFFSET -6.292450 5.785301 -0.669000
								CHANNELS 3 Xrotation Yrotation Zrotation
								JOINT RightShoulder_split
								{
									OFFSET -6.292450 5.785301 -0.669000
									CHANNELS 3 Xrotation Yrotation Zrotation
									JOINT RightArm
									{
										OFFSET -13.907140 -6.093903 1.965100
										CHANNELS 3 Xrotation Yrotation Zrotation
										JOINT RightForeArm
										{
											OFFSET -34.140198 0.000000 0.000000
											CHANNELS 3 Xrotation Yrotation Zrotation
											JOINT RightHand
											{
												OFFSET -40.960209 0.000000 0.000000
												CHANNELS 3 Xrotation Yrotation Zrotation
												End Site
												{
													OFFSET 0 0 0
												}
											}
										}
									}
								}
							}
						}
					}
				}
			}
		}
	}
}
MOTION
Frames: 8
Frame Time: 0.03333333
14.204309 108.124825 -0.699024 0.000000 0.000000 0.000000 2.158178 -44.734713 2.592980 -21.757479 14.751696 7.913809 33.813517 19.875801 2.094070 -5.575063 13.343967 -13.506224 -1.307658 -0.829483 -2.059903 0.000000 0.000000 0.000000 2.010857 -44.180194 2.894886 -27.164596 -36.732761 -22.336556 31.294171 -8.278049 -5.497295 -10.911473 -2.770425 8.266568 -8.241810 2.469458 4.282606 0.000000 0.000000 0.000000 3.768449 -41.999390 3.035209 11.097357 -7.198347 2.502882 3.055756 -2.097621 -1.993179 -0.242319 -0.465706 0.868586 0.000000 0.000000 0.000000 -7.679315 -3.935917 -0.768460 -9.589536 -4.903562 -4.980868 10.368534 -22.439104 7.781477 0.000000 0.000000 0.000000 -8.819706 -3.896877 -1.224521 -0.890522 2.414091 -6.720682 1.036785 -2.963097 1.587914 9.567686 5.519964 -58.859606 -1.048248 -46.043835 0.238726 0.000000 0.000000 0.000000 -8.838160 -4.278914 -1.184632 -0.987444 -1.178982 5.942846 -3.146397 -3.925077 -2.110831 7.529110 18.283436 71.747183 0.241396 49.617561 1.307502 0.000000 0.000000 0.000000 
13.605261 108.005104 -1.422089 0.000000 0.000000 0.000000 1.329621 -48.301667 2.362644 -21.014243 15.067119 8.455949 35.026426 20.621967 1.893556 -4.911932 13.830200 -13.208887 -1.141251 -0.496490 -2.626581 0.000000 0.000000 0.000000 1.314330 -47.582496 2.659214 -25.874915 -37.154498 -22.068157 30.084938 -9.238807 -5.642251 -11.352513 -3.929848 8.636521 -7.835393 2.591992 3.393015 0.000000 0.000000 0.000000 3.006235 -45.284906 2.803805 11.029253 -7.129900 2.427234 2.804930 -1.884606 -1.826782 -0.253976 -0.622932 0.958519 0.000000 0.000000 0.000000 -7.889931 -3.773720 -0.591244 -9.311307 -4.014924 -5.146979 10.648354 -20.615664 7.309144 0.000000 0.000000 0.000000 -9.043475 -3.693262 -1.054015 -0.813671 2.196328 -6.670764 1.046555 -3.336823 1.705484 9.053330 5.110727 -58.312118 -1.187532 -45.272526 0.234511 0.000000 0.000000 0.000000 -9.025328 -4.094893 -1.039258 -1.212908 -0.398663 5.808307 -3.139361 -3.852419 -2.188970 7.150751 16.911434 71.964881 0.130926 48.103212 1.382361 0.000000 0.000000 0.000000 
12.877628 107.852501 -2.313488 0.000000 0.000000 0.000000 0.522538 -51.625923 1.804437 -21.106511 15.361399 9.604472 36.700519 21.147623 1.641465 -3.548083 13.934317 -12.850574 -1.035844 -0.219825 -3.433839 0.000000 0.000000 0.000000 0.412636 -50.637581 2.002953 -24.878257 -37.196814 -21.409650 28.809215 -9.779569 -5.672849 -11.306098 -4.385373 9.124302 -8.372672 2.689840 2.613262 0.000000 0.000000 0.000000 2.316218 -48.329968 2.353843 11.000420 -6.751376 2.316190 2.600665 -1.766418 -1.586832 -0.199069 -0.767493 1.018470 0.000000 0.000000 0.000000 -8.062842 -3.676516 -0.351186 -9.061102 -3.319981 -5.261156 10.855301 -19.103588 6.812528 0.000000 0.000000 0.000000 -9.205741 -3.580285 -0.804355 -0.759681 1.932546 -6.581979 1.065407 -3.490939 1.680319 8.365809 4.500233 -57.983573 -1.177639 -44.631403 0.354551 0.000000 0.000000 0.000000 -9.191516 -3.985749 -0.813744 -1.410689 0.217643 5.672481 -3.017656 -3.747470 -2.344783 6.652946 15.322530 72.075202 0.025126 46.095038 1.457313 0.000000 0.000000 0.000000 
12.056152 107.788078 -3.212395 0.000000 0.000000 0.000000 -0.277879 -54.484371 0.947487 -21.927511 15.636912 11.221918 38.273945 21.336500 1.481740 -1.638405 13.498316 -12.465303 -1.460367 -0.039215 -4.248253 0.000000 0.000000 0.000000 -0.576262 -53.362011 1.001077 -23.965177 -36.827540 -20.365638 27.436129 -9.929180 -5.642567 -10.974091 -4.238800 9.807587 -9.539116 2.745721 2.029765 0.000000 0.000000 0.000000 1.754273 -51.111672 1.749093 11.009164 -6.127815 2.191220 2.444310 -1.747755 -1.279927 -0.060589 -0.950462 0.985416 0.000000 0.000000 0.000000 -8.181860 -3.656418 -0.051353 -8.839875 -2.807398 -5.348794 10.970483 -17.886321 6.326877 0.000000 0.000000 0.000000 -9.304292 -3.566084 -0.488349 -0.730325 1.611492 -6.492511 1.117425 -3.314642 1.599775 7.628452 3.648398 -57.783865 -1.091229 -44.117838 0.519784 0.000000 0.000000 0.000000 -9.334696 -3.962623 -0.504204 -1.571146 0.657935 5.543882 -2.797482 -3.510314 -2.544240 6.116181 13.557672 72.099689 -0.038824 43.725502 1.506522 0.000000 0.000000 0.000000 
11.244278 107.861404 -4.116600 0.000000 0.000000 0.000000 -1.045989 -56.842894 -0.103418 -23.161212 15.861316 13.032858 39.227047 20.872532 1.526037 0.328759 12.460003 -12.140536 -2.580861 0.035715 -4.816100 0.000000 0.000000 0.000000 -1.450827 -55.823471 -0.117220 -22.659861 -36.078681 -18.805049 25.902616 -10.097355 -5.570471 -10.908606 -3.953238 10.026033 -10.325335 2.739949 1.732158 0.000000 0.000000 0.000000 1.426708 -53.709469 1.161860 11.043730 -5.335539 2.048495 2.319377 -1.792430 -0.925001 0.078702 -1.132842 0.884246 0.000000 0.000000 0.000000 -8.265442 -3.688483 0.294103 -8.607312 -2.456335 -5.485246 11.022429 -16.951136 5.883656 0.000000 0.000000 0.000000 -9.345805 -3.627014 -0.129872 -0.728401 1.291728 -6.435849 1.191624 -2.775153 1.413033 6.945203 2.501388 -57.636770 -1.004711 -43.631921 0.655205 0.000000 0.000000 0.000000 -9.448162 -4.001805 -0.136354 -1.677988 0.920252 5.450731 -2.561537 -3.154411 -2.777280 5.634008 11.656282 72.073502 -0.035790 41.112712 1.515905 0.000000 0.000000 0.000000 
10.407656 108.072495 -4.843628 0.000000 0.000000 0.000000 -1.537970 -58.787588 -1.057518 -24.570506 16.234706 14.791914 39.355885 19.910155 1.593505 1.342505 11.043879 -11.343692 -3.627724 -0.035839 -5.093205 0.000000 0.000000 0.000000 -2.218034 -58.053090 -1.198801 -20.848732 -34.921746 -16.837820 24.158456 -10.494184 -5.460274 -11.341550 -3.838742 9.502689 -10.001612 2.686358 1.713732 0.000000 0.000000 0.000000 1.346832 -56.156002 0.734699 11.077798 -4.439874 1.906548 2.208618 -1.858646 -0.557852 0.165621 -1.224082 0.781238 0.000000 0.000000 0.000000 -8.325001 -3.732966 0.650166 -8.349323 -2.237284 -5.712797 11.051963 -16.257298 5.514616 0.000000 0.000000 0.000000 -9.361067 -3.711638 0.240369 -0.753724 1.045241 -6.405676 1.348313 -2.006666 1.219499 6.493381 1.030331 -57.481690 -0.997481 -43.184834 0.697821 0.000000 0.000000 0.000000 -9.532373 -4.063573 0.252784 -1.735378 1.016107 5.374045 -2.348907 -2.679013 -2.998069 5.238189 9.681564 71.964574 0.014568 38.381889 1.490843 0.000000 0.000000 0.000000 
9.559898 108.408936 -5.427994 0.000000 0.000000 0.000000 -1.747040 -60.419143 -1.750149 -26.115121 16.690891 16.334338 38.936409 18.476657 1.533617 1.359869 9.386546 -10.156070 -3.886848 -0.270029 -5.064730 0.000000 0.000000 0.000000 -2.794405 -60.184171 -2.048234 -18.803618 -33.222098 -14.727478 22.409832 -11.012143 -5.346970 -12.053712 -4.014167 8.668677 -9.120689 2.592222 1.904310 0.000000 0.000000 0.000000 1.525178 -58.504183 0.576170 11.125130 -3.490787 1.765381 2.102297 -1.876460 -0.214994 0.150915 -1.278165 0.668886 0.000000 0.000000 0.000000 -8.386287 -3.727370 0.981317 -8.075337 -2.113160 -6.084218 11.096899 -15.750035 5.236278 0.000000 0.000000 0.000000 -9.365353 -3.752646 0.587060 -0.802767 0.912920 -6.401739 1.469827 -1.163354 0.987255 6.294917 -0.722327 -57.307705 -1.102681 -42.759122 0.628281 0.000000 0.000000 0.000000 -9.590771 -4.081304 0.624572 -1.741304 0.985502 5.301477 -2.217636 -2.228031 -3.173523 4.951357 7.752104 71.722826 0.093574 35.684778 1.445769 0.000000 0.000000 0.000000 
8.704057 108.804642 -5.867970 0.000000 0.000000 0.000000 -1.631137 -62.059420 -2.055218 -27.845413 16.974217 17.608585 38.552996 16.432161 1.226753 1.101904 7.520347 -9.063492 -3.466037 -0.634034 -4.678447 0.000000 0.000000 0.000000 -3.191751 -62.308421 -2.600222 -16.808097 -30.995733 -12.757747 20.919083 -11.464516 -5.263047 -12.533989 -4.407218 8.132613 -8.421868 2.477325 2.176119 0.000000 0.000000 0.000000 1.859086 -60.776253 0.707954 11.188916 -2.525945 1.620514 2.005309 -1.791364 0.067825 0.121038 -1.274447 0.614658 0.000000 0.000000 0.000000 -8.468612 -3.615021 1.256648 -7.782382 -2.045791 -6.591077 11.183916 -15.391601 5.063772 0.000000 0.000000 0.000000 -9.378424 -3.687721 0.881045 -0.871623 0.904356 -6.390635 1.566040 -0.349638 0.750716 6.342985 -2.615467 -57.158134 -1.297823 -42.421806 0.472747 0.000000 0.000000 0.000000 -9.628853 -3.993949 0.941108 -1.701040 0.872464 5.249896 -2.124424 -1.839769 -3.341154 4.755413 5.966275 71.334052 0.195038 33.157761 1.400133 0.000000 0.000000 0.000000 
